<?xml version="1.0" standalone="no"?>
<!DOCTYPE svg PUBLIC "-//W3C//DTD SVG 20010904//EN"
 "http://www.w3.org/TR/2001/REC-SVG-20010904/DTD/svg10.dtd">
<svg version="1.0" xmlns="http://www.w3.org/2000/svg"
 width="1024.000000pt" height="1024.000000pt" viewBox="0 0 1024.000000 1024.000000"
 preserveAspectRatio="xMidYMid meet">

<g transform="translate(0.000000,1024.000000) scale(0.100000,-0.100000)"
fill="#000000" stroke="none">
<path d="M2970 6142 l0 -1240 28 -6 c15 -4 405 -72 867 -151 462 -80 919 -159
1015 -176 96 -17 189 -33 206 -36 17 -3 112 9 210 26 98 18 244 43 324 57 80
14 195 34 255 44 210 37 501 88 835 145 80 14 222 38 315 54 94 17 189 33 213
36 l42 7 0 1234 0 1234 -97 0 c-119 0 -1046 -17 -1583 -29 -228 -6 -543 -6
-745 -1 -192 5 -604 14 -915 19 -311 6 -656 14 -767 17 l-203 6 0 -1240z
m3465 848 c39 -12 107 -40 153 -62 l82 -40 0 -307 -1 -306 -21 30 c-12 17 -58
67 -104 112 -73 72 -90 84 -149 102 -171 53 -292 -4 -373 -174 -54 -112 -66
-175 -66 -330 0 -110 5 -156 21 -215 63 -225 187 -348 361 -358 63 -4 79 -1
127 23 32 15 86 57 130 101 l75 74 0 -304 0 -305 -62 -19 c-340 -105 -655 8
-843 303 -78 121 -127 243 -172 420 -26 103 -27 123 -27 325 0 208 1 219 31
332 88 332 264 546 504 613 78 21 242 14 334 -15z m-2725 -28 l85 -7 1 -585
c1 -626 5 -683 50 -777 69 -143 241 -170 315 -50 43 70 43 78 49 737 l5 635
104 -3 c57 -2 133 -7 170 -10 l66 -7 0 -630 c-1 -688 -7 -787 -59 -935 -69
-199 -178 -275 -391 -274 -275 1 -458 112 -557 339 -67 153 -78 288 -78 993
l0 592 78 -6 c42 -3 115 -9 162 -12z m1473 -925 c71 -46 107 -75 105 -85 -5
-25 -222 -167 -239 -156 -10 6 -13 307 -3 317 8 8 3 10 137 -76z"/>
<path d="M5612 3895 c2 -118 2 -215 0 -215 -1 0 -19 18 -39 41 -52 58 -99 79
-175 79 -70 0 -147 -30 -185 -71 -39 -43 -81 -136 -93 -208 -16 -95 5 -193 56
-270 42 -63 112 -100 202 -108 73 -7 147 23 197 78 19 22 37 39 40 39 3 0 5
-22 5 -50 l0 -50 95 0 95 0 0 475 0 475 -101 0 -100 0 3 -215z m-49 -285 c38
-30 71 -104 64 -146 -9 -54 -45 -104 -91 -125 -52 -24 -70 -24 -121 1 -100 49
-114 189 -26 263 27 23 42 27 90 27 43 0 65 -5 84 -20z"/>
<path d="M3781 4064 c-139 -39 -256 -164 -297 -319 -17 -61 -18 -185 -3 -257
24 -116 124 -250 222 -297 25 -12 80 -29 123 -38 85 -17 162 -11 272 22 l52
16 0 130 0 130 -47 -40 c-60 -50 -90 -61 -161 -61 -141 1 -234 101 -235 253 0
176 123 295 276 267 55 -11 78 -22 130 -63 l38 -29 -3 128 -3 128 -60 19 c-81
26 -233 31 -304 11z"/>
<path d="M1664 4058 c-3 -4 -3 -148 -1 -320 4 -340 11 -389 63 -468 61 -92
186 -135 372 -128 147 6 212 28 279 94 83 82 86 99 91 492 l3 332 -119 0 -120
0 -4 -302 c-3 -279 -5 -306 -23 -343 -50 -100 -218 -102 -272 -3 -16 29 -18
67 -21 340 l-3 307 -121 3 c-66 2 -122 0 -124 -4z"/>
<path d="M2975 3781 c-22 -10 -62 -42 -88 -71 l-47 -52 0 61 0 61 -100 0 -100
0 0 -310 0 -310 110 0 110 0 1 183 c1 198 8 238 52 271 39 29 119 28 149 -2
22 -22 23 -29 26 -237 l3 -215 110 0 109 0 0 233 c0 129 -5 249 -10 269 -14
50 -55 97 -105 119 -54 25 -166 25 -220 0z"/>
<path d="M4535 3779 c-133 -47 -205 -134 -230 -280 -9 -50 18 -152 56 -210 55
-86 144 -136 259 -146 60 -5 80 -2 146 22 181 66 264 234 203 413 -57 169
-260 263 -434 201z m183 -175 c90 -63 71 -227 -30 -254 -53 -15 -91 -5 -129
32 -54 54 -63 106 -28 167 11 21 33 45 47 54 34 21 111 22 140 1z"/>
<path d="M6190 3784 c-152 -55 -230 -164 -233 -324 -1 -92 29 -166 93 -228
127 -122 390 -124 508 -4 23 24 40 47 37 52 -2 4 -39 19 -81 34 -66 24 -77 25
-87 13 -23 -29 -82 -57 -122 -57 -78 0 -133 47 -150 128 l-7 32 241 0 241 0
-6 43 c-24 177 -63 244 -174 294 -72 33 -194 41 -260 17z m187 -147 c17 -18
35 -44 38 -59 l7 -28 -131 0 c-85 0 -131 4 -131 10 0 31 54 99 90 113 34 14
95 -4 127 -36z"/>
<path d="M7079 3780 c-21 -11 -53 -38 -73 -62 l-36 -42 0 52 0 52 -105 0 -105
0 0 -310 0 -310 105 0 105 0 0 190 c0 247 15 289 103 290 89 0 97 -24 97 -281
l0 -199 105 0 105 0 0 173 c0 251 21 307 116 307 79 0 93 -47 94 -302 l0 -178
105 0 105 0 0 233 c0 127 -5 250 -10 271 -12 54 -38 87 -90 114 -90 45 -220
20 -294 -57 l-29 -30 -21 31 c-40 59 -69 73 -159 76 -66 2 -89 -2 -118 -18z"/>
<path d="M7974 3668 c29 -62 85 -181 124 -264 l72 -152 -85 -177 c-47 -97 -85
-181 -85 -186 0 -5 53 -9 119 -9 l118 0 183 418 c101 229 189 432 197 450 l14
33 -118 -3 -117 -3 -53 -130 c-29 -71 -52 -138 -53 -147 0 -23 -20 -34 -20
-11 -1 10 -24 79 -53 153 l-52 135 -122 3 -123 3 54 -113z"/>
</g>
</svg>
